<svg viewBox="0 0 100 100" xmlns="http://www.w3.org/2000/svg" fill="#000">
  <!-- body -->
  <path d="M50 10c-18 0-32 14-32 36v34c0 2 1.2 3 2.8 2.2L30 76l6.2 5.8c1.4 1.3 3.4 1.3 4.8 0L50 70l9 11.8c1.4 1.3 3.4 1.3 4.8 0L70 76l9.2 6.2c1.6.8 2.8-.2 2.8-2.2V46C82 24 68 10 50 10z"/>
  <!-- eyes -->
  <circle cx="38" cy="44" r="6" fill="#fff"/>
  <circle cx="62" cy="44" r="6" fill="#fff"/>
  <circle cx="40" cy="45" r="2.8" fill="#000"/>
  <circle cx="64" cy="45" r="2.8" fill="#000"/>
  <!-- blush -->
  <ellipse cx="30" cy="54" rx="5" ry="3" fill="#ff8fab" opacity="0.7"/>
  <ellipse cx="70" cy="54" rx="5" ry="3" fill="#ff8fab" opacity="0.7"/>
</svg>
